<?xml version="1.0" encoding="utf-8"?>
<!-- Generator: Adobe Illustrator 16.0.0, SVG Export Plug-In . SVG Version: 6.00 Build 0)  -->
<!DOCTYPE svg PUBLIC "-//W3C//DTD SVG 1.1//EN" "http://www.w3.org/Graphics/SVG/1.1/DTD/svg11.dtd">
<svg version="1.1" id="Layer_1" xmlns="http://www.w3.org/2000/svg" xmlns:xlink="http://www.w3.org/1999/xlink" x="0px" y="0px"
	 width="40px" height="40px" viewBox="0 0 40 40" enable-background="new 0 0 40 40" xml:space="preserve">
<g>
	<path id="path-1" fill="#FFFFFF" d="M21.586,20l-5.293,5.293c-0.391,0.391-0.391,1.023,0,1.414s1.023,0.391,1.414,0l6-6
		c0.391-0.391,0.391-1.023,0-1.414l-6-6c-0.391-0.391-1.023-0.391-1.414,0s-0.391,1.023,0,1.414L21.586,20z"/>
</g>
<title>button-slider-right-hover</title>
<desc>Created with Sketch.</desc>
<g id="GIFOS">
	<g id="_x30_0-UI-Kit" transform="translate(-357.000000, -2911.000000)">
		<g id="button-slider-right-hover" transform="translate(357.000000, 2911.000000)">
			<rect id="Rectangle-Copy-8" fill="#FFFFFF" width="40" height="40"/>
			<g id="button-right-hover">
				<path id="path-1_1_" fill="#222326" d="M21.586,20l-5.293,5.293c-0.391,0.391-0.391,1.023,0,1.414s1.023,0.391,1.414,0l6-6
					c0.391-0.391,0.391-1.023,0-1.414l-6-6c-0.391-0.391-1.023-0.391-1.414,0s-0.391,1.023,0,1.414L21.586,20z"/>
			</g>
		</g>
	</g>
</g>
</svg>
