<?xml version="1.0" encoding="utf-8"?>
<!-- Generator: Adobe Illustrator 16.0.0, SVG Export Plug-In . SVG Version: 6.00 Build 0)  -->
<!DOCTYPE svg PUBLIC "-//W3C//DTD SVG 1.1//EN" "http://www.w3.org/Graphics/SVG/1.1/DTD/svg11.dtd">
<svg version="1.1" id="Layer_1" xmlns="http://www.w3.org/2000/svg" xmlns:xlink="http://www.w3.org/1999/xlink" x="0px" y="0px"
	 width="40px" height="40px" viewBox="0 0 40 40" enable-background="new 0 0 40 40" xml:space="preserve">
<g>
	<path id="path-1" fill="#FFFFFF" d="M18.414,20l5.293-5.293c0.391-0.391,0.391-1.023,0-1.414s-1.023-0.391-1.414,0l-6,6
		c-0.391,0.391-0.391,1.023,0,1.414l6,6c0.391,0.391,1.023,0.391,1.414,0s0.391-1.023,0-1.414L18.414,20z"/>
</g>
<title>button-slider-left-hover</title>
<desc>Created with Sketch.</desc>
<g id="GIFOS">
	<g id="_x30_0-UI-Kit" transform="translate(-357.000000, -2965.000000)">
		<g id="button-slider-left-hover" transform="translate(357.000000, 2965.000000)">
			<rect id="Rectangle-Copy-8" fill="#FFFFFF" width="40" height="40"/>
			<g id="button-left-hover">
				<path id="path-1_1_" fill="#222326" d="M18.414,20l5.293-5.293c0.391-0.391,0.391-1.023,0-1.414s-1.023-0.391-1.414,0l-6,6
					c-0.391,0.391-0.391,1.023,0,1.414l6,6c0.391,0.391,1.023,0.391,1.414,0s0.391-1.023,0-1.414L18.414,20z"/>
			</g>
		</g>
	</g>
</g>
</svg>
