<?xml version="1.0" encoding="utf-8"?>
<!-- Generator: Adobe Illustrator 16.0.0, SVG Export Plug-In . SVG Version: 6.00 Build 0)  -->
<!DOCTYPE svg PUBLIC "-//W3C//DTD SVG 1.1//EN" "http://www.w3.org/Graphics/SVG/1.1/DTD/svg11.dtd">
<svg version="1.1" id="Layer_1" xmlns="http://www.w3.org/2000/svg" xmlns:xlink="http://www.w3.org/1999/xlink" x="0px" y="0px"
	 width="32px" height="32px" viewBox="0 0 32 32" enable-background="new 0 0 32 32" xml:space="preserve">
<g>
	<path id="path-1" fill="#FFFFFF" d="M16.277,9.497C17.234,8.539,18.535,8,19.891,8c1.354,0,2.654,0.539,3.613,1.497
		C24.461,10.455,25,11.755,25,13.11c0,1.355-0.539,2.655-1.497,3.613l-6.947,6.947c-0.307,0.308-0.805,0.308-1.112,0l-6.947-6.947
		c-1.996-1.995-1.996-5.23,0-7.226c1.995-1.996,5.23-1.996,7.226,0L16,9.774L16.277,9.497z M16,22.003l5.559-5.559l0.833-0.833
		c0.663-0.663,1.036-1.563,1.036-2.501c0-0.938-0.373-1.838-1.036-2.501s-1.563-1.037-2.501-1.037c-0.939,0-1.838,0.373-2.502,1.037
		l-0.833,0.833c-0.307,0.307-0.805,0.307-1.112,0l-0.833-0.833c-1.381-1.381-3.621-1.381-5.003,0c-1.381,1.381-1.381,3.622,0,5.003
		L16,22.003z"/>
</g>
<title>icon-fav-hover</title>
<desc>Created with Sketch.</desc>
<g id="GIFOS">
	<g id="_x30_0-UI-Kit" transform="translate(-858.000000, -2777.000000)">
		<g id="icon-fav-hover" transform="translate(858.000000, 2777.000000)">
			<path id="Rectangle-Copy-7" fill="#FFFFFF" d="M6,0h20c3.313,0,6,2.687,6,6v20c0,3.313-2.687,6-6,6H6c-3.313,0-6-2.687-6-6V6
				C0,2.687,2.687,0,6,0z"/>
			<g>
				<path fill="#572EE5" d="M25,13.11c0,1.36-0.54,2.65-1.5,3.61l-6.94,6.95c-0.31,0.311-0.81,0.311-1.12,0L8.5,16.72
					c-2-1.99-2-5.229,0-7.22c1.99-2,5.23-2,7.22,0L16,9.77l0.28-0.27C17.23,8.54,18.54,8,19.89,8c1.36,0,2.65,0.54,3.61,1.5
					S25,11.75,25,13.11z"/>
			</g>
		</g>
	</g>
</g>
</svg>
