<?xml version="1.0" encoding="utf-8"?>
<!-- Generator: Adobe Illustrator 16.0.0, SVG Export Plug-In . SVG Version: 6.00 Build 0)  -->
<!DOCTYPE svg PUBLIC "-//W3C//DTD SVG 1.1//EN" "http://www.w3.org/Graphics/SVG/1.1/DTD/svg11.dtd">
<svg version="1.1" id="Layer_1" xmlns="http://www.w3.org/2000/svg" xmlns:xlink="http://www.w3.org/1999/xlink" x="0px" y="0px"
	 width="15.8px" height="15.8px" viewBox="2.1 2.1 15.8 15.8" enable-background="new 2.1 2.1 15.8 15.8" xml:space="preserve">
<g>
	<path id="path-1" fill="#FFFFFF" d="M8.875,2.5c3.52,0,6.375,2.854,6.375,6.375c0,1.489-0.512,2.861-1.367,3.946l3.397,3.398
		c0.293,0.293,0.293,0.768,0,1.061s-0.768,0.293-1.061,0l0,0l-3.398-3.397c-1.085,0.855-2.457,1.367-3.946,1.367
		c-3.521,0-6.375-2.855-6.375-6.375C2.5,5.354,5.354,2.5,8.875,2.5z M8.875,4C6.183,4,4,6.183,4,8.875s2.183,4.875,4.875,4.875
		c1.328,0,2.531-0.531,3.411-1.392l0.033-0.039c0.013-0.013,0.024-0.022,0.038-0.034c0.861-0.879,1.393-2.082,1.393-3.41
		C13.75,6.183,11.567,4,8.875,4z"/>
</g>
<title>icon-search</title>
<desc>Created with Sketch.</desc>
<g id="GIFOS">
	<g id="_x30_0-UI-Kit" transform="translate(-637.000000, -518.000000)">
		<g id="_x2D_Nav-Desktop-Sticky" transform="translate(0.000000, 479.000000)">
			<g id="icon-search" transform="translate(637.000000, 39.000000)">
				<g>
					<path id="path-1_1_" fill="#9CAFC3" d="M8.815,2.1c3.708,0,6.715,3.006,6.715,6.715c0,1.569-0.539,3.014-1.44,4.157l3.579,3.58
						c0.309,0.309,0.309,0.809,0,1.117s-0.809,0.309-1.117,0l0,0l-3.58-3.579c-1.143,0.901-2.588,1.44-4.157,1.44
						c-3.708,0-6.715-3.008-6.715-6.715C2.1,5.106,5.106,2.1,8.815,2.1z M8.815,3.68c-2.836,0-5.135,2.299-5.135,5.135
						c0,2.836,2.299,5.135,5.135,5.135c1.399,0,2.667-0.56,3.593-1.466l0.035-0.041c0.013-0.014,0.025-0.024,0.04-0.036
						c0.907-0.926,1.467-2.193,1.467-3.592C13.95,5.979,11.651,3.68,8.815,3.68z"/>
				</g>
			</g>
		</g>
	</g>
</g>
</svg>
