<?xml version="1.0" encoding="utf-8"?>
<!-- Generator: Adobe Illustrator 16.0.0, SVG Export Plug-In . SVG Version: 6.00 Build 0)  -->
<!DOCTYPE svg PUBLIC "-//W3C//DTD SVG 1.1//EN" "http://www.w3.org/Graphics/SVG/1.1/DTD/svg11.dtd">
<svg version="1.1" id="Layer_1" xmlns="http://www.w3.org/2000/svg" xmlns:xlink="http://www.w3.org/1999/xlink" x="0px" y="0px"
	 width="20px" height="20px" viewBox="0 0 20 20" enable-background="new 0 0 20 20" xml:space="preserve">
<g>
	<path id="path-1" fill="#FFFFFF" d="M8.5,0C13.194,0,17,3.806,17,8.5c0,1.986-0.682,3.814-1.823,5.262l4.53,4.531
		c0.391,0.391,0.391,1.023,0,1.414s-1.023,0.391-1.414,0l0,0l-4.531-4.53C12.314,16.318,10.486,17,8.5,17C3.806,17,0,13.194,0,8.5
		S3.806,0,8.5,0z M8.5,2C4.91,2,2,4.91,2,8.5S4.91,15,8.5,15c1.771,0,3.375-0.708,4.548-1.855l0.045-0.052
		c0.017-0.017,0.032-0.031,0.05-0.046C14.292,11.875,15,10.271,15,8.5C15,4.91,12.09,2,8.5,2z"/>
</g>
<title>icon-search</title>
<desc>Created with Sketch.</desc>
<g id="GIFOS">
	<g id="_x30_0-UI-Kit" transform="translate(-637.000000, -518.000000)">
		<g id="_x2D_Nav-Desktop-Sticky" transform="translate(0.000000, 479.000000)">
			<g id="icon-search" transform="translate(637.000000, 39.000000)">
				<g>
					<path id="path-1_1_" fill="#9CAFC3" d="M8.5,0C13.194,0,17,3.806,17,8.5c0,1.986-0.682,3.814-1.823,5.262l4.53,4.531
						c0.391,0.391,0.391,1.023,0,1.414s-1.023,0.391-1.414,0l0,0l-4.531-4.53C12.314,16.318,10.486,17,8.5,17
						C3.806,17,0,13.194,0,8.5S3.806,0,8.5,0z M8.5,2C4.91,2,2,4.91,2,8.5S4.91,15,8.5,15c1.771,0,3.375-0.708,4.548-1.855
						l0.045-0.052c0.017-0.017,0.032-0.031,0.05-0.046C14.292,11.875,15,10.271,15,8.5C15,4.91,12.09,2,8.5,2z"/>
				</g>
			</g>
		</g>
	</g>
</g>
</svg>
